<svg width="31" height="36" viewBox="0 0 31 36" fill="none" xmlns="http://www.w3.org/2000/svg">
<path d="M25.7532 30.7322C20.0905 36.4226 10.9095 36.4226 5.24693 30.7322C2.41564 27.8869 1 24.1578 1 20.4286C1 16.6995 2.41564 12.9703 5.24693 10.1251C5.24693 15.5714 5.83354 20.4286 13.0836 22.8571C13.0836 18 15.5002 3.42858 19.1252 1C21.5419 5.85715 22.9219 7.27985 25.753 10.1251C28.5844 12.9703 30 16.6995 30 20.4286C30 24.1578 28.5844 27.8869 25.7532 30.7322Z" fill="#4C51BF" stroke="#4C51BF" stroke-width="2" stroke-linecap="round" stroke-linejoin="round"/>
<path d="M10.3737 30.4375C13.205 33.2828 17.7954 33.2828 20.6267 30.4375C22.0424 29.0149 22.7503 27.1505 22.7503 25.2858C22.7503 23.4211 22.0424 21.5567 20.6267 20.1341C19.2111 18.7114 18.5211 18.0001 17.3128 15.5715C15.5003 16.7858 14.292 24.0715 14.292 26.5001C10.3737 26.5001 8.25024 25.2858 8.25024 25.2858C8.25024 27.1505 8.95807 29.0149 10.3737 30.4375Z" fill="white"/>
</svg>
